<?xml version="1.0" standalone="no"?>
 <!DOCTYPE svg PUBLIC "-//W3C//DTD SVG 1.1//EN" 
 "http://www.w3.org/Graphics/SVG/1.1/DTD/svg11.dtd"> 
<svg xmlns="http://www.w3.org/2000/svg" version="1.1" 
    width="4.2037cm" height="4.3688cm" viewBox="0 0 16550 17200 ">
<title>SVG Picture created as repauser-F_Cu.svg date 2013/10/20 20:36:16 </title>
  <desc>Picture generated by PCBNEW </desc>
<g style="fill:#000000; fill-opacity:1;stroke:#000000; stroke-opacity:1;
stroke-linecap:round; stroke-linejoin:round; "
 transform="translate(0 0) scale(1 1)">
</g>
<g style="fill:#000000; fill-opacity:0.0; 
stroke:#000000; stroke-width:39.3701; stroke-opacity:1; 
stroke-linecap:round; stroke-linejoin:round;">
<path d="M266 16568
L266 898
" />
<path d="M16132 16568
L266 16568
" />
<path d="M16132 898
L16132 16568
" />
<path d="M266 898
L16132 898
" />
</g>
<g style="fill:#000000; fill-opacity:0.0; 
stroke:#000000; stroke-width:511.811; stroke-opacity:1; 
stroke-linecap:round; stroke-linejoin:round;">
<path d="M2943 1371
L2549 1371
" />
</g>
<g style="fill:#000000; fill-opacity:0.0; 
stroke:#000000; stroke-width:78.7402; stroke-opacity:1; 
stroke-linecap:round; stroke-linejoin:round;">
</g>
<g style="fill:#000000; fill-opacity:1.0; 
stroke:#000000; stroke-width:78.7402; stroke-opacity:1; 
stroke-linecap:round; stroke-linejoin:round;">
<circle cx="4163.98" cy="4757.09" r="295.276" /> 
</g>
<g style="fill:#000000; fill-opacity:1.0; 
stroke:#000000; stroke-width:511.811; stroke-opacity:1; 
stroke-linecap:round; stroke-linejoin:round;">
<path d="M2943 4757
L2549 4757
" />
</g>
<g style="fill:#000000; fill-opacity:1.0; 
stroke:#000000; stroke-width:78.7402; stroke-opacity:1; 
stroke-linecap:round; stroke-linejoin:round;">
<circle cx="13376.6" cy="7359.45" r="295.276" /> 
<circle cx="13376.6" cy="4359.45" r="295.276" /> 
<circle cx="14754.5" cy="11572" r="295.276" /> 
<circle cx="14754.5" cy="8572.05" r="295.276" /> 
<circle cx="13337.2" cy="8532.68" r="295.276" /> 
<circle cx="13337.2" cy="11532.7" r="295.276" /> 
<circle cx="14719.1" cy="14166.5" r="295.276" /> 
<circle cx="11719.1" cy="14166.5" r="295.276" /> 
<circle cx="14719.1" cy="13024.8" r="295.276" /> 
<circle cx="11719.1" cy="13024.8" r="295.276" /> 
<circle cx="2746.65" cy="10540.6" r="295.276" /> 
<circle cx="2746.65" cy="13540.6" r="295.276" /> 
<circle cx="14793.9" cy="4359.45" r="295.276" /> 
<circle cx="14793.9" cy="7359.45" r="295.276" /> 
<polyline style="fill-rule:evenodd;"
points="5749,5057
5749,4535
6271,4535
6271,5057
5749,5057
" /> 
<circle cx="7010.43" cy="4796.46" r="295.276" /> 
<circle cx="8010.43" cy="4796.46" r="295.276" /> 
<circle cx="9010.43" cy="4796.46" r="295.276" /> 
<polyline style="fill-rule:evenodd;"
points="6907,15608
6907,15087
7428,15087
7428,15608
6907,15608
" /> 
<circle cx="8167.91" cy="15347.6" r="295.276" /> 
<polyline style="fill-rule:evenodd;"
points="5836,8262
6657,8262
6657,8803
5836,8803
5836,8262
" /> 
</g>
<g style="fill:#000000; fill-opacity:1.0; 
stroke:#000000; stroke-width:620; stroke-opacity:1; 
stroke-linecap:round; stroke-linejoin:round;">
<path d="M6386 9532
L6106 9532
" />
<path d="M6386 10532
L6106 10532
" />
<path d="M6386 11532
L6106 11532
" />
<path d="M9386 11532
L9106 11532
" />
<path d="M9386 10532
L9106 10532
" />
<path d="M9386 9532
L9106 9532
" />
<path d="M9386 8532
L9106 8532
" />
</g>
<g style="fill:#000000; fill-opacity:1.0; 
stroke:#000000; stroke-width:78.7402; stroke-opacity:1; 
stroke-linecap:round; stroke-linejoin:round;">
<circle cx="10018.3" cy="6331.89" r="235.63" /> 
<circle cx="9018.31" cy="6331.89" r="235.63" /> 
<polyline style="fill-rule:evenodd;"
points="1566,6957
1566,7438
1084,7438
1084,6957
1566,6957
" /> 
<circle cx="4325.39" cy="7198.03" r="295.276" /> 
<polyline style="fill-rule:evenodd;"
points="4084,8777
4084,8295
4566,8295
4566,8777
4084,8777
" /> 
<circle cx="1325.39" cy="8536.61" r="295.276" /> 
<circle cx="15266.3" cy="1764.96" r="760.63" /> 
<circle cx="1289.96" cy="15544.5" r="760.63" /> 
</g>
<g style="fill:#000000; fill-opacity:1.0; 
stroke:#000000; stroke-width:314.961; stroke-opacity:1; 
stroke-linecap:round; stroke-linejoin:round;">
<path d="M14715 8532
L14754 8572
" />
<path d="M13337 8532
L14715 8532
" />
<path d="M14793 7359
L13376 7359
" />
<path d="M9246 10532
L10090 10532
" />
<path d="M10533 10975
L10090 10532
" />
<path d="M10533 12982
L10533 10975
" />
<path d="M8167 15347
L10533 12982
" />
<path d="M4163 4757
L4163 4875
" />
<path d="M4163 4875
L2746 6292
" />
<path d="M8576 7158
L9246 7828
" />
<path d="M6014 7158
L8576 7158
" />
<path d="M4636 8536
L6014 7158
" />
<path d="M4325 8536
L4636 8536
" />
<path d="M4325 8536
L3337 8536
" />
<path d="M2746 7946
L2746 6292
" />
<path d="M3337 8536
L2746 7946
" />
<path d="M9246 8532
L9246 7828
" />
<path d="M12821 6331
L10018 6331
" />
<path d="M14793 4359
L12821 6331
" />
<path d="M10018 7057
L9246 7828
" />
<path d="M10018 6331
L10018 7057
" />
</g>
<g style="fill:#000000; fill-opacity:1.0; 
stroke:#000000; stroke-width:78.7402; stroke-opacity:1; 
stroke-linecap:round; stroke-linejoin:round;">
<polyline style="fill-rule:evenodd;"
points="15866,16302
15492,16302
15492,7221
15386,6964
15190,6767
14933,6660
14655,6660
14398,6766
14327,6837
13843,6837
13772,6767
13516,6660
13238,6660
13225,6665
14832,5058
14932,5058
15189,4952
15385,4755
15492,4499
15492,4221
15386,3964
15190,3767
14933,3660
14655,3660
14398,3766
14201,3963
14095,4219
14095,4320
14075,4340
14075,4221
13969,3964
13772,3767
13516,3660
13238,3660
12981,3766
12784,3963
12677,4219
12677,4497
12783,4754
12980,4951
13236,5058
13357,5058
12605,5810
10400,5810
10380,5790
10146,5692
9891,5692
9656,5789
9599,5847
9599,4885
9588,4653
9520,4488
9421,4457
9349,4529
9349,4385
9317,4286
9099,4207
8867,4218
8702,4286
8671,4385
9010,4724
9349,4385
9349,4529
9082,4796
9421,5135
9520,5103
9599,4885
9599,5847
9476,5969
9442,6050
9386,6035
9349,6072
9349,5207
9010,4868
8938,4940
8938,4796
8645,4503
8603,4401
8406,4204
8150,4097
7872,4097
7615,4203
7510,4308
7406,4204
7150,4097
6872,4097
6615,4203
6573,4244
6516,4187
6383,4132
6238,4132
5638,4132
5504,4187
5401,4289
5346,4423
5346,4568
5346,5168
5401,5302
5503,5405
5637,5460
5782,5460
6382,5460
6516,5405
6573,5348
6614,5388
6870,5495
7148,5495
7405,5389
7510,5284
7614,5388
7870,5495
8148,5495
8405,5389
8602,5192
8645,5089
8938,4796
8938,4940
8671,5207
8702,5306
8921,5385
9153,5374
9317,5306
9349,5207
9349,6072
9314,6107
9314,5964
9289,5871
9093,5802
8884,5814
8746,5871
8722,5964
9018,6260
9314,5964
9314,6107
9090,6331
9386,6627
9442,6612
9476,6693
9496,6714
9496,6841
9246,7091
9012,6857
9151,6849
9289,6792
9314,6699
9018,6403
9012,6409
8946,6343
8940,6337
8946,6331
8650,6035
8558,6060
8489,6257
8500,6465
8558,6603
8650,6627
8630,6647
8576,6637
6014,6637
5814,6676
5730,6733
5645,6789
4971,7463
5024,7337
5024,7059
4918,6802
4721,6605
4465,6499
4187,6499
3930,6605
3733,6801
3626,7058
3626,7336
3732,7593
3929,7790
4175,7892
3973,7892
3839,7947
3772,8014
3553,8014
3268,7729
3268,6508
4333,5442
4559,5349
4756,5153
4862,4896
4862,4618
4756,4361
4560,4165
4303,4058
4025,4058
3768,4164
3571,4360
3516,4495
3397,4318
3196,4184
2959,4137
2533,4137
2296,4184
2095,4318
1960,4519
1913,4757
1960,4994
2095,5195
2296,5329
2533,5377
2924,5377
2377,5923
2264,6092
2225,6292
2225,7946
2264,8145
2377,8314
2968,8905
2968,8905
3052,8962
3137,9018
3137,9018
3337,9058
3772,9058
3838,9125
3972,9180
4117,9180
4677,9180
4811,9125
4913,9023
4946,8944
4946,8944
5005,8905
5432,8478
5432,8914
5487,9048
5566,9127
5467,9274
5416,9532
5467,9790
5613,10009
5648,10032
5613,10055
5467,10274
5416,10532
5467,10790
5613,11009
5758,11105
5675,11173
5570,11365
5564,11395
5612,11481
6195,11481
6195,11474
6297,11474
6297,11481
6880,11481
6928,11395
6922,11365
6817,11173
6734,11105
6879,11009
7025,10790
7076,10532
7025,10274
6879,10055
6844,10032
6879,10009
7025,9790
7076,9532
7025,9274
6926,9127
7005,9049
7060,8915
7060,8770
7060,8150
7005,8016
6903,7914
6769,7858
6624,7858
6052,7858
6230,7680
8360,7680
8687,8007
8613,8055
8467,8274
8416,8532
8467,8790
8613,9009
8648,9032
8613,9055
8467,9274
8416,9532
8467,9790
8613,10009
8648,10032
8613,10055
8467,10274
8416,10532
8467,10790
8613,11009
8648,11032
8613,11055
8467,11274
8416,11532
8467,11790
8613,12009
8832,12155
9090,12206
9402,12206
9660,12155
9879,12009
10011,11811
10011,12765
8129,14648
8029,14648
7772,14754
7649,14877
7608,14836
7517,14798
7281,14798
7218,14860
7218,15296
7226,15296
7226,15398
7218,15398
7218,15834
7281,15896
7517,15896
7608,15859
7650,15817
7771,15939
8028,16046
8306,16046
8563,15940
8759,15744
8866,15487
8866,15386
10902,13350
10902,13350
10958,13266
11015,13181
11015,13181
11020,13157
11020,13163
11126,13420
11301,13595
11127,13770
11020,14026
11020,14304
11126,14561
11322,14758
11579,14865
11857,14865
12114,14759
12311,14562
12417,14306
12418,14028
12311,13771
12136,13595
12311,13421
12417,13164
12418,12886
12311,12629
12115,12432
11858,12326
11580,12325
11323,12432
11127,12628
11055,12801
11055,10975
11015,10776
11015,10776
10958,10691
10902,10606
10902,10606
10459,10163
10290,10050
10090,10011
9876,10011
9879,10009
10025,9790
10076,9532
10025,9274
9879,9055
9844,9032
9879,9009
10025,8790
10076,8532
10025,8274
9879,8055
9806,8007
10387,7426
10387,7426
10443,7341
10500,7256
10500,7256
10539,7057
10539,7057
10539,6853
12821,6853
12821,6853
12912,6835
12784,6963
12677,7219
12677,7497
12783,7754
12960,7932
12941,7939
12745,8136
12638,8393
12638,8671
12744,8928
12940,9124
13197,9231
13475,9231
13732,9125
13803,9054
14248,9054
14358,9164
14614,9270
14892,9270
15149,9164
15346,8968
15453,8711
15453,8433
15347,8176
15150,7979
15136,7973
15189,7952
15385,7755
15492,7499
15492,7221
15492,16302
15453,16302
15453,11433
15347,11176
15150,10979
14894,10873
14616,10873
14359,10979
14162,11175
14055,11432
14055,11710
14161,11967
14358,12164
14614,12270
14892,12270
15149,12164
15346,11968
15453,11711
15453,11433
15453,16302
15418,16302
15418,14028
15311,13771
15136,13595
15311,13421
15417,13164
15418,12886
15311,12629
15115,12432
14858,12326
14580,12325
14323,12432
14127,12628
14036,12847
14036,11394
13929,11137
13733,10940
13476,10833
13198,10833
12941,10939
12745,11136
12638,11393
12638,11671
12744,11928
12940,12124
13197,12231
13475,12231
13732,12125
13929,11929
14035,11672
14036,11394
14036,12847
14020,12885
14020,13163
14126,13420
14301,13595
14127,13770
14020,14026
14020,14304
14126,14561
14322,14758
14579,14865
14857,14865
15114,14759
15311,14562
15417,14306
15418,14028
15418,16302
7117,16302
7117,15834
7117,15398
7117,15296
7117,14860
7054,14798
6928,14798
6928,11669
6880,11583
6297,11583
6297,12091
6437,12091
6647,12029
6817,11892
6922,11699
6928,11669
6928,14798
6818,14798
6726,14836
6656,14906
6618,14997
6618,15096
6618,15234
6681,15296
7117,15296
7117,15398
6681,15398
6618,15460
6618,15598
6618,15697
6656,15788
6726,15859
6818,15896
7054,15896
7117,15834
7117,16302
6195,16302
6195,12091
6195,11583
5612,11583
5564,11669
5570,11699
5675,11892
5845,12029
6055,12091
6195,12091
6195,16302
3445,16302
3445,10402
3339,10145
3143,9948
2886,9841
2608,9841
2351,9947
2154,10144
2047,10400
2047,10678
2153,10935
2350,11132
2607,11239
2885,11239
3141,11133
3338,10936
3445,10680
3445,10402
3445,16302
3335,16302
3335,13629
3324,13397
3256,13233
3157,13201
3085,13273
3085,13129
3054,13030
2835,12951
2603,12962
2439,13030
2407,13129
2746,13468
3085,13129
3085,13273
2818,13540
3157,13879
3256,13848
3335,13629
3335,16302
3085,16302
3085,13951
2746,13612
2674,13684
2674,13540
2335,13201
2236,13233
2158,13451
2168,13683
2236,13848
2335,13879
2674,13540
2674,13684
2407,13951
2439,14050
2657,14129
2889,14118
3054,14050
3085,13951
3085,16302
2178,16302
2276,16204
2453,15777
2454,15313
2277,14885
2024,14632
2024,8398
1918,8141
1721,7944
1475,7842
1677,7842
1811,7786
1913,7684
1969,7550
1969,7405
1969,6845
1914,6712
1811,6609
1678,6553
1533,6553
973,6553
839,6609
736,6711
681,6845
681,6990
681,7550
736,7684
838,7786
972,7842
1117,7842
1175,7842
930,7943
733,8140
626,8397
626,8675
732,8931
929,9128
1185,9235
1463,9235
1720,9129
1917,8932
2024,8676
2024,8398
2024,14632
1950,14558
1522,14380
1059,14380
631,14556
532,14656
532,1164
1954,1164
1913,1371
1960,1608
2095,1809
2296,1944
2533,1991
2959,1991
3196,1944
3397,1809
3532,1608
3579,1371
3538,1164
14255,1164
14102,1532
14101,1995
14278,2423
14606,2751
15033,2928
15496,2929
15866,2776
15866,16302
" /> 
</g>
<g style="fill:#000000; fill-opacity:0.0; 
stroke:#000000; stroke-width:98.4252; stroke-opacity:1; 
stroke-linecap:round; stroke-linejoin:round;">
<polyline fill="none;"
points="15866,16302
15492,16302
15492,7221
15386,6964
15190,6767
14933,6660
14655,6660
14398,6766
14327,6837
13843,6837
13772,6767
13516,6660
13238,6660
13225,6665
14832,5058
14932,5058
15189,4952
15385,4755
15492,4499
15492,4221
15386,3964
15190,3767
14933,3660
14655,3660
14398,3766
14201,3963
14095,4219
14095,4320
14075,4340
14075,4221
13969,3964
13772,3767
13516,3660
13238,3660
12981,3766
12784,3963
12677,4219
12677,4497
12783,4754
12980,4951
13236,5058
13357,5058
12605,5810
10400,5810
10380,5790
10146,5692
9891,5692
9656,5789
9599,5847
9599,4885
9588,4653
9520,4488
9421,4457
9349,4529
9349,4385
9317,4286
9099,4207
8867,4218
8702,4286
8671,4385
9010,4724
9349,4385
9349,4529
9082,4796
9421,5135
9520,5103
9599,4885
9599,5847
9476,5969
9442,6050
9386,6035
9349,6072
9349,5207
9010,4868
8938,4940
8938,4796
8645,4503
8603,4401
8406,4204
8150,4097
7872,4097
7615,4203
7510,4308
7406,4204
7150,4097
6872,4097
6615,4203
6573,4244
6516,4187
6383,4132
6238,4132
5638,4132
5504,4187
5401,4289
5346,4423
5346,4568
5346,5168
5401,5302
5503,5405
5637,5460
5782,5460
6382,5460
6516,5405
6573,5348
6614,5388
6870,5495
7148,5495
7405,5389
7510,5284
7614,5388
7870,5495
8148,5495
8405,5389
8602,5192
8645,5089
8938,4796
8938,4940
8671,5207
8702,5306
8921,5385
9153,5374
9317,5306
9349,5207
9349,6072
9314,6107
9314,5964
9289,5871
9093,5802
8884,5814
8746,5871
8722,5964
9018,6260
9314,5964
9314,6107
9090,6331
9386,6627
9442,6612
9476,6693
9496,6714
9496,6841
9246,7091
9012,6857
9151,6849
9289,6792
9314,6699
9018,6403
9012,6409
8946,6343
8940,6337
8946,6331
8650,6035
8558,6060
8489,6257
8500,6465
8558,6603
8650,6627
8630,6647
8576,6637
6014,6637
5814,6676
5730,6733
5645,6789
4971,7463
5024,7337
5024,7059
4918,6802
4721,6605
4465,6499
4187,6499
3930,6605
3733,6801
3626,7058
3626,7336
3732,7593
3929,7790
4175,7892
3973,7892
3839,7947
3772,8014
3553,8014
3268,7729
3268,6508
4333,5442
4559,5349
4756,5153
4862,4896
4862,4618
4756,4361
4560,4165
4303,4058
4025,4058
3768,4164
3571,4360
3516,4495
3397,4318
3196,4184
2959,4137
2533,4137
2296,4184
2095,4318
1960,4519
1913,4757
1960,4994
2095,5195
2296,5329
2533,5377
2924,5377
2377,5923
2264,6092
2225,6292
2225,7946
2264,8145
2377,8314
2968,8905
2968,8905
3052,8962
3137,9018
3137,9018
3337,9058
3772,9058
3838,9125
3972,9180
4117,9180
4677,9180
4811,9125
4913,9023
4946,8944
4946,8944
5005,8905
5432,8478
5432,8914
5487,9048
5566,9127
5467,9274
5416,9532
5467,9790
5613,10009
5648,10032
5613,10055
5467,10274
5416,10532
5467,10790
5613,11009
5758,11105
5675,11173
5570,11365
5564,11395
5612,11481
6195,11481
6195,11474
6297,11474
6297,11481
6880,11481
6928,11395
6922,11365
6817,11173
6734,11105
6879,11009
7025,10790
7076,10532
7025,10274
6879,10055
6844,10032
6879,10009
7025,9790
7076,9532
7025,9274
6926,9127
7005,9049
7060,8915
7060,8770
7060,8150
7005,8016
6903,7914
6769,7858
6624,7858
6052,7858
6230,7680
8360,7680
8687,8007
8613,8055
8467,8274
8416,8532
8467,8790
8613,9009
8648,9032
8613,9055
8467,9274
8416,9532
8467,9790
8613,10009
8648,10032
8613,10055
8467,10274
8416,10532
8467,10790
8613,11009
8648,11032
8613,11055
8467,11274
8416,11532
8467,11790
8613,12009
8832,12155
9090,12206
9402,12206
9660,12155
9879,12009
10011,11811
10011,12765
8129,14648
8029,14648
7772,14754
7649,14877
7608,14836
7517,14798
7281,14798
7218,14860
7218,15296
7226,15296
7226,15398
7218,15398
7218,15834
7281,15896
7517,15896
7608,15859
7650,15817
7771,15939
8028,16046
8306,16046
8563,15940
8759,15744
8866,15487
8866,15386
10902,13350
10902,13350
10958,13266
11015,13181
11015,13181
11020,13157
11020,13163
11126,13420
11301,13595
11127,13770
11020,14026
11020,14304
11126,14561
11322,14758
11579,14865
11857,14865
12114,14759
12311,14562
12417,14306
12418,14028
12311,13771
12136,13595
12311,13421
12417,13164
12418,12886
12311,12629
12115,12432
11858,12326
11580,12325
11323,12432
11127,12628
11055,12801
11055,10975
11015,10776
11015,10776
10958,10691
10902,10606
10902,10606
10459,10163
10290,10050
10090,10011
9876,10011
9879,10009
10025,9790
10076,9532
10025,9274
9879,9055
9844,9032
9879,9009
10025,8790
10076,8532
10025,8274
9879,8055
9806,8007
10387,7426
10387,7426
10443,7341
10500,7256
10500,7256
10539,7057
10539,7057
10539,6853
12821,6853
12821,6853
12912,6835
12784,6963
12677,7219
12677,7497
12783,7754
12960,7932
12941,7939
12745,8136
12638,8393
12638,8671
12744,8928
12940,9124
13197,9231
13475,9231
13732,9125
13803,9054
14248,9054
14358,9164
14614,9270
14892,9270
15149,9164
15346,8968
15453,8711
15453,8433
15347,8176
15150,7979
15136,7973
15189,7952
15385,7755
15492,7499
15492,7221
15492,16302
15453,16302
15453,11433
15347,11176
15150,10979
14894,10873
14616,10873
14359,10979
14162,11175
14055,11432
14055,11710
14161,11967
14358,12164
14614,12270
14892,12270
15149,12164
15346,11968
15453,11711
15453,11433
15453,16302
15418,16302
15418,14028
15311,13771
15136,13595
15311,13421
15417,13164
15418,12886
15311,12629
15115,12432
14858,12326
14580,12325
14323,12432
14127,12628
14036,12847
14036,11394
13929,11137
13733,10940
13476,10833
13198,10833
12941,10939
12745,11136
12638,11393
12638,11671
12744,11928
12940,12124
13197,12231
13475,12231
13732,12125
13929,11929
14035,11672
14036,11394
14036,12847
14020,12885
14020,13163
14126,13420
14301,13595
14127,13770
14020,14026
14020,14304
14126,14561
14322,14758
14579,14865
14857,14865
15114,14759
15311,14562
15417,14306
15418,14028
15418,16302
7117,16302
7117,15834
7117,15398
7117,15296
7117,14860
7054,14798
6928,14798
6928,11669
6880,11583
6297,11583
6297,12091
6437,12091
6647,12029
6817,11892
6922,11699
6928,11669
6928,14798
6818,14798
6726,14836
6656,14906
6618,14997
6618,15096
6618,15234
6681,15296
7117,15296
7117,15398
6681,15398
6618,15460
6618,15598
6618,15697
6656,15788
6726,15859
6818,15896
7054,15896
7117,15834
7117,16302
6195,16302
6195,12091
6195,11583
5612,11583
5564,11669
5570,11699
5675,11892
5845,12029
6055,12091
6195,12091
6195,16302
3445,16302
3445,10402
3339,10145
3143,9948
2886,9841
2608,9841
2351,9947
2154,10144
2047,10400
2047,10678
2153,10935
2350,11132
2607,11239
2885,11239
3141,11133
3338,10936
3445,10680
3445,10402
3445,16302
3335,16302
3335,13629
3324,13397
3256,13233
3157,13201
3085,13273
3085,13129
3054,13030
2835,12951
2603,12962
2439,13030
2407,13129
2746,13468
3085,13129
3085,13273
2818,13540
3157,13879
3256,13848
3335,13629
3335,16302
3085,16302
3085,13951
2746,13612
2674,13684
2674,13540
2335,13201
2236,13233
2158,13451
2168,13683
2236,13848
2335,13879
2674,13540
2674,13684
2407,13951
2439,14050
2657,14129
2889,14118
3054,14050
3085,13951
3085,16302
2178,16302
2276,16204
2453,15777
2454,15313
2277,14885
2024,14632
2024,8398
1918,8141
1721,7944
1475,7842
1677,7842
1811,7786
1913,7684
1969,7550
1969,7405
1969,6845
1914,6712
1811,6609
1678,6553
1533,6553
973,6553
839,6609
736,6711
681,6845
681,6990
681,7550
736,7684
838,7786
972,7842
1117,7842
1175,7842
930,7943
733,8140
626,8397
626,8675
732,8931
929,9128
1185,9235
1463,9235
1720,9129
1917,8932
2024,8676
2024,8398
2024,14632
1950,14558
1522,14380
1059,14380
631,14556
532,14656
532,1164
1954,1164
1913,1371
1960,1608
2095,1809
2296,1944
2533,1991
2959,1991
3196,1944
3397,1809
3532,1608
3579,1371
3538,1164
14255,1164
14102,1532
14101,1995
14278,2423
14606,2751
15033,2928
15496,2929
15866,2776
15866,16302
" /> 
</g>
<g style="fill:#FFFFFF; fill-opacity:0.0; 
stroke:#FFFFFF; stroke-width:78.7402; stroke-opacity:1; 
stroke-linecap:round; stroke-linejoin:round;">
</g>
<g style="fill:#FFFFFF; fill-opacity:1.0; 
stroke:#FFFFFF; stroke-width:78.7402; stroke-opacity:1; 
stroke-linecap:round; stroke-linejoin:round;">
<circle cx="2746.65" cy="1371.26" r="78.7402" /> 
<circle cx="4163.98" cy="4757.09" r="137.795" /> 
<circle cx="2746.65" cy="4757.09" r="78.7402" /> 
<circle cx="13376.6" cy="7359.45" r="137.795" /> 
<circle cx="13376.6" cy="4359.45" r="137.795" /> 
<circle cx="14754.5" cy="11572" r="137.795" /> 
<circle cx="14754.5" cy="8572.05" r="137.795" /> 
<circle cx="13337.2" cy="8532.68" r="137.795" /> 
<circle cx="13337.2" cy="11532.7" r="137.795" /> 
<circle cx="14719.1" cy="14166.5" r="137.795" /> 
<circle cx="11719.1" cy="14166.5" r="137.795" /> 
<circle cx="14719.1" cy="13024.8" r="137.795" /> 
<circle cx="11719.1" cy="13024.8" r="137.795" /> 
<circle cx="2746.65" cy="10540.6" r="137.795" /> 
<circle cx="2746.65" cy="13540.6" r="137.795" /> 
<circle cx="14793.9" cy="4359.45" r="137.795" /> 
<circle cx="14793.9" cy="7359.45" r="137.795" /> 
<circle cx="6010.43" cy="4796.46" r="160.63" /> 
<circle cx="7010.43" cy="4796.46" r="137.795" /> 
<circle cx="8010.43" cy="4796.46" r="137.795" /> 
<circle cx="9010.43" cy="4796.46" r="137.795" /> 
<circle cx="7167.91" cy="15347.6" r="160.63" /> 
<circle cx="8167.91" cy="15347.6" r="137.795" /> 
<circle cx="6246.65" cy="8532.68" r="120.63" /> 
<circle cx="6246.65" cy="9532.68" r="120.63" /> 
<circle cx="6246.65" cy="10532.7" r="120.63" /> 
<circle cx="6246.65" cy="11532.7" r="120.63" /> 
<circle cx="9246.65" cy="11532.7" r="120.63" /> 
<circle cx="9246.65" cy="10532.7" r="120.63" /> 
<circle cx="9246.65" cy="9532.68" r="120.63" /> 
<circle cx="9246.65" cy="8532.68" r="120.63" /> 
<circle cx="10018.3" cy="6331.89" r="120.63" /> 
<circle cx="9018.31" cy="6331.89" r="120.63" /> 
<circle cx="1325.39" cy="7198.03" r="80.6299" /> 
<circle cx="4325.39" cy="7198.03" r="137.795" /> 
<circle cx="4325.39" cy="8536.61" r="80.6299" /> 
<circle cx="1325.39" cy="8536.61" r="137.795" /> 
<circle cx="15266.3" cy="1764.96" r="560.63" /> 
<circle cx="1289.96" cy="15544.5" r="560.63" /> 
</g> 
</svg>
