<?xml version="1.0" standalone="no"?>
 <!DOCTYPE svg PUBLIC "-//W3C//DTD SVG 1.1//EN" 
 "http://www.w3.org/Graphics/SVG/1.1/DTD/svg11.dtd"> 
<svg xmlns="http://www.w3.org/2000/svg" version="1.1" 
    width="4.2037cm" height="4.3688cm" viewBox="0 0 16550 17200 ">
<title>SVG Picture created as repauser-B_Cu.svg date 2013/10/20 20:36:16 </title>
  <desc>Picture generated by PCBNEW </desc>
<g style="fill:#000000; fill-opacity:1;stroke:#000000; stroke-opacity:1;
stroke-linecap:round; stroke-linejoin:round; "
 transform="translate(0 0) scale(1 1)">
</g>
<g style="fill:#000000; fill-opacity:0.0; 
stroke:#000000; stroke-width:39.3701; stroke-opacity:1; 
stroke-linecap:round; stroke-linejoin:round;">
<path d="M266 16568
L266 898
" />
<path d="M16132 16568
L266 16568
" />
<path d="M16132 898
L16132 16568
" />
<path d="M266 898
L16132 898
" />
</g>
<g style="fill:#000000; fill-opacity:0.0; 
stroke:#000000; stroke-width:511.811; stroke-opacity:1; 
stroke-linecap:round; stroke-linejoin:round;">
<path d="M2943 1371
L2549 1371
" />
</g>
<g style="fill:#000000; fill-opacity:0.0; 
stroke:#000000; stroke-width:78.7402; stroke-opacity:1; 
stroke-linecap:round; stroke-linejoin:round;">
</g>
<g style="fill:#000000; fill-opacity:1.0; 
stroke:#000000; stroke-width:78.7402; stroke-opacity:1; 
stroke-linecap:round; stroke-linejoin:round;">
<circle cx="4163.98" cy="4757.09" r="295.276" /> 
</g>
<g style="fill:#000000; fill-opacity:1.0; 
stroke:#000000; stroke-width:511.811; stroke-opacity:1; 
stroke-linecap:round; stroke-linejoin:round;">
<path d="M2943 4757
L2549 4757
" />
</g>
<g style="fill:#000000; fill-opacity:1.0; 
stroke:#000000; stroke-width:78.7402; stroke-opacity:1; 
stroke-linecap:round; stroke-linejoin:round;">
<circle cx="13376.6" cy="7359.45" r="295.276" /> 
<circle cx="13376.6" cy="4359.45" r="295.276" /> 
<circle cx="14754.5" cy="11572" r="295.276" /> 
<circle cx="14754.5" cy="8572.05" r="295.276" /> 
<circle cx="13337.2" cy="8532.68" r="295.276" /> 
<circle cx="13337.2" cy="11532.7" r="295.276" /> 
<circle cx="14719.1" cy="14166.5" r="295.276" /> 
<circle cx="11719.1" cy="14166.5" r="295.276" /> 
<circle cx="14719.1" cy="13024.8" r="295.276" /> 
<circle cx="11719.1" cy="13024.8" r="295.276" /> 
<circle cx="2746.65" cy="10540.6" r="295.276" /> 
<circle cx="2746.65" cy="13540.6" r="295.276" /> 
<circle cx="14793.9" cy="4359.45" r="295.276" /> 
<circle cx="14793.9" cy="7359.45" r="295.276" /> 
<polyline style="fill-rule:evenodd;"
points="5749,5057
5749,4535
6271,4535
6271,5057
5749,5057
" /> 
<circle cx="7010.43" cy="4796.46" r="295.276" /> 
<circle cx="8010.43" cy="4796.46" r="295.276" /> 
<circle cx="9010.43" cy="4796.46" r="295.276" /> 
<polyline style="fill-rule:evenodd;"
points="6907,15608
6907,15087
7428,15087
7428,15608
6907,15608
" /> 
<circle cx="8167.91" cy="15347.6" r="295.276" /> 
<polyline style="fill-rule:evenodd;"
points="5836,8262
6657,8262
6657,8803
5836,8803
5836,8262
" /> 
</g>
<g style="fill:#000000; fill-opacity:1.0; 
stroke:#000000; stroke-width:620; stroke-opacity:1; 
stroke-linecap:round; stroke-linejoin:round;">
<path d="M6386 9532
L6106 9532
" />
<path d="M6386 10532
L6106 10532
" />
<path d="M6386 11532
L6106 11532
" />
<path d="M9386 11532
L9106 11532
" />
<path d="M9386 10532
L9106 10532
" />
<path d="M9386 9532
L9106 9532
" />
<path d="M9386 8532
L9106 8532
" />
</g>
<g style="fill:#000000; fill-opacity:1.0; 
stroke:#000000; stroke-width:78.7402; stroke-opacity:1; 
stroke-linecap:round; stroke-linejoin:round;">
<circle cx="10018.3" cy="6331.89" r="235.63" /> 
<circle cx="9018.31" cy="6331.89" r="235.63" /> 
<polyline style="fill-rule:evenodd;"
points="1566,6957
1566,7438
1084,7438
1084,6957
1566,6957
" /> 
<circle cx="4325.39" cy="7198.03" r="295.276" /> 
<polyline style="fill-rule:evenodd;"
points="4084,8777
4084,8295
4566,8295
4566,8777
4084,8777
" /> 
<circle cx="1325.39" cy="8536.61" r="295.276" /> 
<circle cx="15266.3" cy="1764.96" r="760.63" /> 
<circle cx="1289.96" cy="15544.5" r="760.63" /> 
</g>
<g style="fill:#000000; fill-opacity:1.0; 
stroke:#000000; stroke-width:236.22; stroke-opacity:1; 
stroke-linecap:round; stroke-linejoin:round;">
<path d="M9018 6331
L9018 6359
" />
<path d="M7230 11532
L6246 11532
" />
<path d="M7667 11095
L7230 11532
" />
<path d="M7667 7709
L7667 11095
" />
<path d="M9018 6359
L7667 7709
" />
</g>
<g style="fill:#000000; fill-opacity:1.0; 
stroke:#000000; stroke-width:314.961; stroke-opacity:1; 
stroke-linecap:round; stroke-linejoin:round;">
<path d="M7010 4796
L7010 3800
" />
<path d="M11963 2946
L13376 4359
" />
<path d="M7864 2946
L11963 2946
" />
<path d="M7010 3800
L7864 2946
" />
<path d="M12329 9147
L14754 11572
" />
<path d="M12329 5406
L12329 9147
" />
<path d="M13376 4359
L12329 5406
" />
<path d="M6246 10532
L2754 10532
" />
<path d="M2754 10532
L2746 10540
" />
<path d="M2746 1371
L2746 2040
" />
<path d="M2746 6607
L2746 10540
" />
<path d="M1368 5229
L2746 6607
" />
<path d="M1368 3418
L1368 5229
" />
<path d="M2746 2040
L1368 3418
" />
<path d="M1325 8536
L1325 7198
" />
<path d="M6010 4796
L6010 5512
" />
<path d="M6010 5512
L4325 7198
" />
<path d="M8010 4796
L8010 4060
" />
<path d="M8010 4060
L8338 3732
" />
<path d="M8338 3732
L9074 3732
" />
<path d="M10246 3732
L9074 3732
" />
<path d="M11064 4550
L10246 3732
" />
<path d="M11064 9425
L11064 4550
" />
<path d="M12439 10800
L11064 9425
" />
<path d="M12439 13446
L12439 10800
" />
<path d="M11719 14166
L12439 13446
" />
<path d="M14719 13024
L14719 14166
" />
<path d="M9246 9532
L10090 9532
" />
<path d="M11719 11161
L10090 9532
" />
<path d="M11719 13024
L11719 11161
" />
<path d="M13337 14354
L13337 11532
" />
<path d="M12196 15494
L13337 14354
" />
<path d="M11292 15494
L12196 15494
" />
<path d="M9246 13449
L11292 15494
" />
<path d="M9246 11532
L9246 13449
" />
</g>
<g style="fill:#FFFFFF; fill-opacity:1.0; 
stroke:#FFFFFF; stroke-width:78.7402; stroke-opacity:1; 
stroke-linecap:round; stroke-linejoin:round;">
<circle cx="2746.65" cy="1371.26" r="78.7402" /> 
<circle cx="4163.98" cy="4757.09" r="137.795" /> 
<circle cx="2746.65" cy="4757.09" r="78.7402" /> 
<circle cx="13376.6" cy="7359.45" r="137.795" /> 
<circle cx="13376.6" cy="4359.45" r="137.795" /> 
<circle cx="14754.5" cy="11572" r="137.795" /> 
<circle cx="14754.5" cy="8572.05" r="137.795" /> 
<circle cx="13337.2" cy="8532.68" r="137.795" /> 
<circle cx="13337.2" cy="11532.7" r="137.795" /> 
<circle cx="14719.1" cy="14166.5" r="137.795" /> 
<circle cx="11719.1" cy="14166.5" r="137.795" /> 
<circle cx="14719.1" cy="13024.8" r="137.795" /> 
<circle cx="11719.1" cy="13024.8" r="137.795" /> 
<circle cx="2746.65" cy="10540.6" r="137.795" /> 
<circle cx="2746.65" cy="13540.6" r="137.795" /> 
<circle cx="14793.9" cy="4359.45" r="137.795" /> 
<circle cx="14793.9" cy="7359.45" r="137.795" /> 
<circle cx="6010.43" cy="4796.46" r="160.63" /> 
<circle cx="7010.43" cy="4796.46" r="137.795" /> 
<circle cx="8010.43" cy="4796.46" r="137.795" /> 
<circle cx="9010.43" cy="4796.46" r="137.795" /> 
<circle cx="7167.91" cy="15347.6" r="160.63" /> 
<circle cx="8167.91" cy="15347.6" r="137.795" /> 
<circle cx="6246.65" cy="8532.68" r="120.63" /> 
<circle cx="6246.65" cy="9532.68" r="120.63" /> 
<circle cx="6246.65" cy="10532.7" r="120.63" /> 
<circle cx="6246.65" cy="11532.7" r="120.63" /> 
<circle cx="9246.65" cy="11532.7" r="120.63" /> 
<circle cx="9246.65" cy="10532.7" r="120.63" /> 
<circle cx="9246.65" cy="9532.68" r="120.63" /> 
<circle cx="9246.65" cy="8532.68" r="120.63" /> 
<circle cx="10018.3" cy="6331.89" r="120.63" /> 
<circle cx="9018.31" cy="6331.89" r="120.63" /> 
<circle cx="1325.39" cy="7198.03" r="80.6299" /> 
<circle cx="4325.39" cy="7198.03" r="137.795" /> 
<circle cx="4325.39" cy="8536.61" r="80.6299" /> 
<circle cx="1325.39" cy="8536.61" r="137.795" /> 
<circle cx="15266.3" cy="1764.96" r="560.63" /> 
<circle cx="1289.96" cy="15544.5" r="560.63" /> 
</g> 
</svg>
